<?xml version="1.0" encoding="utf-8"?>
<!-- Generator: Adobe Illustrator 16.0.0, SVG Export Plug-In . SVG Version: 6.00 Build 0)  -->
<!DOCTYPE svg PUBLIC "-//W3C//DTD SVG 1.1//EN" "http://www.w3.org/Graphics/SVG/1.1/DTD/svg11.dtd">
<svg version="1.1" id="Layer_1" xmlns="http://www.w3.org/2000/svg" xmlns:xlink="http://www.w3.org/1999/xlink" x="0px" y="0px"
	 width="472.014px" height="123.438px" viewBox="0 0 472.014 123.438" enable-background="new 0 0 472.014 123.438"
	 xml:space="preserve">
<g>
	<g>
		<g>
			<path fill="#00A1FF" d="M242.978,38.377c0.063-1.052,0.084-2.306,0.06-3.76c-0.081-1.417-0.46-2.804-1.136-4.162
				c-0.672-1.417-1.851-2.574-3.532-3.474c-1.72-0.898-4.148-1.367-7.286-1.406H214.73l-11.213,41.969h7.347l4.263-16.104h12.18
				c3.681-0.039,6.577-0.729,8.691-2.067c2.165-1.282,3.731-2.746,4.698-4.391c1.009-1.724,1.645-3.235,1.908-4.536
				C242.847,39.182,242.972,38.493,242.978,38.377z M235.941,37.314c-0.056,0.919-0.212,1.849-0.472,2.788
				c-0.315,0.938-0.804,1.819-1.462,2.645c-0.601,0.785-1.452,1.408-2.552,1.868c-1.086,0.556-2.424,0.834-4.014,0.834H216.68
				l3.612-13.883h9.233c1.478,0,2.641,0.172,3.487,0.518c0.884,0.364,1.538,0.833,1.966,1.409c0.444,0.594,0.729,1.227,0.856,1.896
				C235.943,36.059,235.978,36.701,235.941,37.314z M253.049,25.576l-10.962,41.969h6.5l10.936-41.969H253.049z M283.522,63.082
				c-0.939,0-1.363-0.451-1.271-1.352c0.088-0.863,0.332-1.861,0.731-2.994l2.795-10.764c0.498-1.838,0.783-3.368,0.855-4.593
				c0.034-0.574,0.02-1.256-0.044-2.042c-0.12-0.786-0.519-1.571-1.192-2.357c-0.584-0.787-1.619-1.42-3.11-1.899
				c-0.78-0.269-1.687-0.46-2.718-0.575c-1.012-0.114-2.203-0.173-3.575-0.173c-3.519-0.038-6.556,0.684-9.109,2.161
				c-2.557,1.537-4.346,4.178-5.366,7.923h6.16c0.316-0.943,0.729-1.754,1.232-2.428c0.48-0.598,1.059-1.07,1.729-1.417
				c1.34-0.637,2.899-0.954,4.686-0.954c1.412,0,2.578,0.231,3.498,0.694c0.879,0.52,1.294,1.513,1.242,2.977
				c-0.067,1.137-0.383,2.062-0.945,2.776c-0.618,0.713-1.523,1.127-2.721,1.244c-2.127,0.191-4.301,0.376-6.521,0.549
				c-3.349,0.115-6.269,0.954-8.755,2.518c-1.198,0.782-2.16,1.812-2.887,3.09c-0.748,1.335-1.196,2.938-1.346,4.808
				c-0.121,2.61,0.687,4.604,2.42,5.979c1.694,1.412,3.774,2.117,6.238,2.117c1.872,0,3.682-0.334,5.426-1.006
				c1.78-0.629,3.357-1.586,4.731-2.869c0.005,1.168,0.349,2.086,1.03,2.756c0.681,0.707,1.564,1.082,2.656,1.119
				c1.709-0.037,3.412-0.313,5.109-0.828l1.316-4.803C285.051,62.93,284.285,63.043,283.522,63.082z M275.308,59.982
				c-1.5,2.027-3.812,3.061-6.939,3.1c-1.248,0.039-2.366-0.25-3.352-0.863c-1.121-0.556-1.656-1.562-1.605-3.021
				c0.074-1.248,0.516-2.246,1.324-2.994c0.767-0.71,1.688-1.199,2.767-1.468c1.138-0.364,2.295-0.585,3.472-0.662
				c1.102-0.077,2.139-0.134,3.107-0.172c0.77-0.113,1.54-0.264,2.314-0.453c0.735-0.169,1.34-0.48,1.812-0.933l0.105,0.114
				C277.804,55.56,276.8,58.01,275.308,59.982z M314.205,37.155l-12.41,22.217h-0.11l-1.75-22.217h-6.83l3.431,29.396l-2.847,4.882
				c-0.483,0.938-1.078,1.606-1.787,2.01c-0.745,0.383-1.607,0.574-2.59,0.574c-0.83-0.039-1.653-0.191-2.471-0.459l-1.527,5.551
				c1.313,0.324,2.608,0.485,3.887,0.485c1.832,0,3.406-0.334,4.725-1.004c1.294-0.594,2.426-1.396,3.393-2.409
				c0.973-1.093,1.877-2.287,2.715-3.587c0.802-1.34,1.605-2.707,2.41-4.104l18.704-31.335H314.205L314.205,37.155z M347.799,41.012
				c-0.787-1.359-1.969-2.488-3.543-3.389c-1.615-0.86-3.736-1.292-6.365-1.292c-5.264,0.115-9.395,2.048-12.396,5.798
				c-3.074,3.732-4.76,8.047-5.053,12.946c-0.193,4.153,0.854,7.386,3.141,9.703c2.209,2.354,5.186,3.549,8.924,3.588
				c7.199,0.039,12.127-3.373,14.779-10.233h-6.449c-1.272,3.262-3.736,4.909-7.387,4.948c-2.438,0-4.176-0.66-5.213-1.983
				c-1.058-1.305-1.523-2.992-1.398-5.063c0.035-0.594,0.111-1.247,0.229-1.956h21.92c0.266-1.015,0.461-2.269,0.588-3.762
				c0.094-1.57,0.031-3.159-0.187-4.768C349.154,43.903,348.625,42.391,347.799,41.012z M343.102,49.681h-15.381
				c0.834-2.438,2.043-4.377,3.621-5.817c1.617-1.459,3.644-2.208,6.076-2.247c1.988,0.039,3.498,0.604,4.531,1.699
				c0.992,1.15,1.432,2.648,1.319,4.493C343.236,48.366,343.182,48.99,343.102,49.681z M374.867,42.847l1.738-6.345
				c-1.011-0.113-2.041-0.171-3.097-0.171c-2.016,0.039-3.879,0.756-5.59,2.153c-1.744,1.378-3.143,2.947-4.188,4.707l-0.104-0.115
				l1.547-5.922h-6.127l-7.92,30.39h6.486l3.524-13.5c0.765-3.186,2.045-5.882,3.84-8.089c1.793-2.188,4.336-3.301,7.629-3.339
				C373.365,42.616,374.119,42.693,374.867,42.847z M175.797,67.199h15.268l11.411-42.18h-15.267L175.797,67.199z M58.823,36.658
				l-8.25,30.66H65.84l3.47-12.819c1.773-6.438,5.013-8.565,11.488-8.565c1.106,0,2.263,0.076,3.396,0.244l5.316-9.814
				c-1.388-0.354-2.853-0.472-5.397-0.472c-3.932,0-8.944,2.303-11.643,5.552h-0.154l1.311-4.785H58.823z M157.158,35.75
				c-9.793,0-18.043,1.892-20.433,10.042h14.341c0.849-2.304,3.006-3.131,6.092-3.131c2.312,0,4.78,0.531,4.78,2.658
				c0,3.782-6.862,3.309-11.18,3.545c-11.488,0.649-19.353,2.835-19.353,10.928c0,5.849,6.091,8.152,12.954,8.152
				c4.471,0,9.637-1.24,12.336-3.721h0.155c-0.078,1.004-0.59,2.952-0.59,2.952h14.61l1.02-3.762
				c0.839-3.851,4.699-15.249,4.699-19.514C176.588,36.459,164.405,35.75,157.158,35.75z M151.529,61.034
				c-2.467,0-4.857-0.531-4.857-2.658c0-2.245,2.39-3.249,4.934-3.427c2.776-0.177,5.629-0.413,8.096-1.358
				C158.776,58.139,156.695,61.034,151.529,61.034z M110.494,35.834c-9.968,0-24.033,4.618-24.033,18.709
				c0,7.458,5.718,13.557,19.938,13.557c17.309,0,20.323-7.636,21.327-9.708h-14.682c-0.772,1.064-2.704,2.189-6.027,2.189
				c-4.791,0-6.259-2.724-6.259-5.979h28.591c0.696-1.896,0.774-3.671,0.774-5.329C130.123,39.624,119.38,35.834,110.494,35.834z
				 M115.671,48.504h-13.6c1.159-3.256,3.863-5.15,7.959-5.15c3.863,0,5.795,1.835,5.795,4.144
				C115.826,47.794,115.749,48.209,115.671,48.504z M107.833,74.357c-2.78-0.013-7.919-0.222-10.527-0.699
				C87.069,79.91,57.905,97.525,57.905,97.525c-1.858,3.354-3.656,6.555-6.113,10.988c-0.91,1.643-5.804,10.434,4.771,4.061
				l48.873-30.117c5.362-2.922,9.727-5.955,13.216-9.069c-0.114,0.021-0.23,0.043-0.34,0.057
				C115.73,73.74,110.614,74.369,107.833,74.357z M65.216,73.674L28.017,73.65c-8.456,0.459-13.243-7.566-13.243-14.869
				c0-6.719,5.023-12.371,11.683-13.147l8.148-0.951l1.979-7.963c3.152-12.677,14.491-21.53,27.575-21.53
				c9.694,0,18.627,4.879,23.897,13.053l3.413,5.29c6.305-3.104,13.668-4.361,19.907-4.361c3.183,0,6.531,0.349,9.763,1.084
				c-5.34-5.282-12.719-8.535-20.843-8.535c-0.768,0-1.527,0.038-2.281,0.099c-7.168-11.114-19.649-18.48-33.856-18.48
				c-18.879,0-34.717,12.993-39.074,30.524c-12.476,1.457-22.16,12.054-22.16,24.919c0,13.861,9.719,26.678,25.097,26.678
				c0.075,0,9.942,0.06,34.008,0.058L65.216,73.674z M369.615,63.883h1.281v3.347h0.518v-3.347h1.279v-0.45h-3.078V63.883z
				 M376.066,63.432l-1.084,3.209l-1.093-3.209h-0.735v3.797h0.489v-2.24c0-0.09-0.002-0.23-0.006-0.422
				c-0.006-0.189-0.008-0.33-0.008-0.424v-0.115l1.094,3.201h0.509l1.086-3.201c0,0.203-0.004,0.396-0.007,0.576
				c-0.004,0.178-0.006,0.309-0.006,0.385v2.24h0.49v-3.797H376.066z"/>
		</g>
	</g>
</g>
<g>
	<rect x="305.046" y="81.594" fill="none" width="166.968" height="44.754"/>
</g>
<g enable-background="new    ">
	<path fill="#00A1FF" d="M310.315,98.764c-0.136,1.088-0.09,2.012,0.137,2.771c0.227,0.76,0.6,1.377,1.121,1.854
		c0.521,0.476,1.168,0.821,1.938,1.036c0.771,0.216,1.62,0.323,2.55,0.323c1.088,0,2.058-0.136,2.907-0.408
		c0.851-0.271,1.575-0.64,2.177-1.104c0.6-0.465,1.088-1.003,1.461-1.615c0.375-0.612,0.629-1.258,0.766-1.938
		c0.203-0.952,0.152-1.723-0.153-2.312c-0.306-0.589-0.771-1.071-1.394-1.445c-0.624-0.374-1.355-0.674-2.193-0.9
		c-0.839-0.227-1.699-0.447-2.584-0.663c-0.884-0.215-1.746-0.471-2.584-0.765c-0.839-0.295-1.553-0.691-2.143-1.19
		c-0.589-0.498-1.014-1.139-1.274-1.921s-0.267-1.773-0.017-2.976c0.181-0.838,0.531-1.654,1.054-2.447
		c0.521-0.793,1.19-1.496,2.006-2.108s1.785-1.099,2.907-1.462c1.122-0.362,2.363-0.544,3.723-0.544
		c1.383,0,2.545,0.192,3.485,0.578s1.683,0.912,2.228,1.581c0.543,0.669,0.895,1.444,1.053,2.329
		c0.158,0.884,0.125,1.824-0.102,2.821h-2.21c0.204-0.929,0.21-1.733,0.017-2.414c-0.192-0.68-0.516-1.234-0.969-1.666
		c-0.453-0.43-1.025-0.747-1.717-0.951s-1.423-0.307-2.193-0.307c-1.179,0-2.204,0.165-3.076,0.493
		c-0.873,0.329-1.604,0.754-2.193,1.275c-0.59,0.521-1.043,1.1-1.359,1.733c-0.318,0.635-0.488,1.271-0.511,1.904
		c-0.046,0.794,0.13,1.428,0.526,1.904c0.396,0.476,0.924,0.867,1.582,1.173c0.656,0.306,1.404,0.556,2.244,0.748
		c0.838,0.192,1.688,0.396,2.549,0.612c0.861,0.215,1.689,0.471,2.482,0.765c0.793,0.295,1.463,0.691,2.006,1.189
		c0.545,0.499,0.936,1.14,1.174,1.922c0.237,0.781,0.232,1.763-0.018,2.94c-0.477,2.267-1.632,4.023-3.468,5.271
		c-1.836,1.246-4.171,1.87-7.004,1.87c-1.271,0-2.414-0.165-3.435-0.493c-1.02-0.329-1.853-0.827-2.498-1.496
		c-0.646-0.669-1.084-1.496-1.31-2.482c-0.228-0.985-0.204-2.147,0.067-3.484H310.315z"/>
	<path fill="#00A1FF" d="M334.456,106.142c-0.25,0.045-0.596,0.124-1.037,0.237s-0.912,0.17-1.411,0.17
		c-1.021,0-1.739-0.255-2.159-0.765s-0.492-1.422-0.221-2.737l2.72-12.886h-2.481l0.373-1.7h2.482l1.055-4.896h2.039l-1.054,4.896
		h3.298l-0.373,1.7h-3.299l-2.55,12.07c-0.091,0.431-0.159,0.805-0.204,1.122s-0.029,0.578,0.051,0.781
		c0.08,0.204,0.227,0.353,0.442,0.442c0.215,0.091,0.538,0.136,0.969,0.136c0.272,0,0.55-0.021,0.833-0.067s0.572-0.103,0.867-0.17
		L334.456,106.142z"/>
	<path fill="#00A1FF" d="M336.563,110.834c0.249,0.045,0.516,0.091,0.799,0.137c0.283,0.045,0.572,0.067,0.867,0.067
		c0.566,0,1.07-0.18,1.514-0.54c0.441-0.36,0.832-0.794,1.172-1.3c0.34-0.507,0.652-1.036,0.936-1.587
		c0.283-0.552,0.561-1.019,0.833-1.401l-3.06-17.748h2.277l2.448,15.13l8.84-15.13h2.21l-10.268,17.374
		c-0.658,1.11-1.258,2.108-1.803,2.992c-0.543,0.884-1.088,1.638-1.632,2.261s-1.11,1.1-1.7,1.429
		c-0.59,0.328-1.235,0.492-1.938,0.492c-0.363,0-0.709-0.022-1.037-0.067c-0.328-0.046-0.617-0.103-0.867-0.17L336.563,110.834z"/>
	<path fill="#00A1FF" d="M355.025,106.074l5.202-24.48h2.04l-5.202,24.48H355.025z"/>
	<path fill="#00A1FF" d="M365.294,97.744c-0.205,0.952-0.272,1.854-0.205,2.703c0.068,0.85,0.283,1.587,0.646,2.21
		c0.362,0.624,0.878,1.122,1.547,1.496c0.668,0.374,1.49,0.561,2.465,0.561c1.338,0,2.556-0.351,3.655-1.054
		c1.099-0.702,1.943-1.7,2.533-2.992h2.278c-0.432,0.839-0.924,1.615-1.479,2.329s-1.196,1.338-1.921,1.87
		c-0.726,0.533-1.542,0.946-2.448,1.241c-0.907,0.294-1.915,0.441-3.026,0.441c-1.405,0-2.566-0.237-3.484-0.714
		c-0.918-0.476-1.621-1.127-2.108-1.955c-0.487-0.827-0.765-1.802-0.833-2.924s0.034-2.329,0.307-3.621
		c0.271-1.292,0.713-2.504,1.326-3.638c0.611-1.133,1.354-2.125,2.227-2.975c0.872-0.851,1.858-1.519,2.958-2.007
		c1.099-0.486,2.283-0.73,3.553-0.73c2.425,0,4.153,0.833,5.185,2.499s1.195,4.086,0.494,7.259H365.294z M377.159,96.044
		c0.182-0.861,0.232-1.671,0.153-2.431c-0.08-0.759-0.289-1.416-0.63-1.972c-0.34-0.556-0.827-0.997-1.461-1.326
		c-0.635-0.328-1.406-0.493-2.312-0.493s-1.74,0.17-2.499,0.51s-1.444,0.794-2.057,1.36s-1.146,1.224-1.599,1.972
		s-0.815,1.542-1.088,2.38H377.159z"/>
	<path fill="#00A1FF" d="M398.511,88.462h2.041l-3.367,15.912c-0.249,1.179-0.605,2.307-1.07,3.383
		c-0.465,1.077-1.094,2.023-1.887,2.84c-0.794,0.815-1.774,1.467-2.941,1.954c-1.168,0.487-2.59,0.731-4.268,0.731
		c-1.291,0-2.368-0.165-3.229-0.493c-0.862-0.329-1.536-0.742-2.022-1.241c-0.488-0.498-0.816-1.048-0.986-1.648
		s-0.21-1.162-0.119-1.684h2.176c0,0.657,0.125,1.195,0.374,1.615c0.249,0.419,0.583,0.748,1.003,0.986s0.901,0.402,1.445,0.493
		c0.544,0.09,1.122,0.136,1.734,0.136c1.382,0,2.544-0.238,3.484-0.714c0.94-0.477,1.711-1.1,2.312-1.87
		c0.6-0.771,1.064-1.644,1.394-2.618s0.595-1.972,0.8-2.992c-0.885,1.088-1.961,1.91-3.23,2.465
		c-1.27,0.556-2.527,0.833-3.774,0.833c-1.337,0-2.448-0.255-3.331-0.765c-0.885-0.51-1.56-1.189-2.023-2.04
		c-0.465-0.85-0.737-1.841-0.816-2.975c-0.08-1.134,0.018-2.312,0.289-3.536c0.271-1.292,0.68-2.505,1.225-3.638
		c0.543-1.134,1.224-2.114,2.039-2.941c0.816-0.827,1.773-1.479,2.873-1.955s2.363-0.714,3.791-0.714
		c0.566,0,1.127,0.079,1.684,0.238c0.555,0.158,1.076,0.386,1.564,0.68c0.486,0.295,0.918,0.669,1.291,1.122
		c0.375,0.453,0.651,0.964,0.834,1.53h0.067L398.511,88.462z M396.642,97.336c0.227-1.064,0.306-2.057,0.237-2.975
		c-0.067-0.918-0.284-1.711-0.646-2.38c-0.363-0.669-0.873-1.195-1.53-1.581s-1.462-0.578-2.414-0.578
		c-0.862,0-1.688,0.153-2.481,0.459c-0.794,0.306-1.525,0.754-2.193,1.343c-0.669,0.59-1.247,1.31-1.734,2.159
		s-0.855,1.831-1.105,2.941c-0.271,1.11-0.396,2.147-0.373,3.11c0.021,0.964,0.209,1.808,0.561,2.533s0.867,1.298,1.547,1.717
		c0.68,0.42,1.553,0.629,2.618,0.629c0.929,0,1.802-0.198,2.618-0.595s1.553-0.929,2.21-1.598s1.218-1.45,1.683-2.347
		C396.103,99.28,396.437,98.334,396.642,97.336z"/>
	<path fill="#00A1FF" d="M417.619,88.462h2.04l-3.74,17.612h-2.04l0.511-2.448c-0.341,0.318-0.715,0.646-1.123,0.986
		s-0.867,0.651-1.377,0.935c-0.51,0.284-1.076,0.522-1.699,0.714c-0.624,0.192-1.321,0.289-2.092,0.289
		c-1.178,0-2.131-0.164-2.855-0.492c-0.726-0.329-1.27-0.788-1.633-1.377c-0.362-0.59-0.566-1.275-0.611-2.058
		s0.034-1.637,0.238-2.566l2.447-11.595h2.041l-2.449,11.561c-0.316,1.519-0.209,2.681,0.324,3.484
		c0.531,0.806,1.604,1.207,3.213,1.207c0.838,0,1.626-0.164,2.363-0.492c0.736-0.329,1.394-0.788,1.971-1.378
		c0.578-0.589,1.077-1.292,1.496-2.107c0.42-0.816,0.731-1.711,0.936-2.687L417.619,88.462z"/>
	<path fill="#00A1FF" d="M421.155,106.074l3.74-17.612h2.039l-3.74,17.612H421.155z M425.608,84.62l0.646-3.026h2.244l-0.646,3.026
		H425.608z"/>
	<path fill="#00A1FF" d="M447.198,81.594h2.04l-5.202,24.48h-2.04l0.646-3.094h-0.067c-0.408,0.59-0.896,1.104-1.462,1.547
		c-0.566,0.441-1.156,0.811-1.768,1.104c-0.612,0.295-1.23,0.521-1.854,0.681c-0.623,0.158-1.219,0.237-1.785,0.237
		c-1.428,0-2.596-0.237-3.502-0.714c-0.906-0.476-1.587-1.127-2.04-1.955c-0.454-0.827-0.708-1.807-0.765-2.94
		s0.051-2.347,0.322-3.639c0.272-1.224,0.681-2.401,1.225-3.535s1.229-2.125,2.057-2.976c0.828-0.85,1.791-1.53,2.891-2.04
		c1.099-0.51,2.316-0.765,3.654-0.765c1.246,0,2.386,0.277,3.418,0.833c1.031,0.556,1.75,1.377,2.158,2.465L447.198,81.594z
		 M443.866,97.2c0.204-0.997,0.266-1.943,0.188-2.839c-0.08-0.896-0.301-1.678-0.664-2.346c-0.362-0.669-0.866-1.201-1.512-1.599
		c-0.646-0.396-1.435-0.595-2.363-0.595c-1.066,0-2.029,0.21-2.891,0.629c-0.861,0.42-1.621,0.992-2.277,1.717
		c-0.658,0.726-1.202,1.57-1.633,2.533c-0.431,0.964-0.736,2.001-0.918,3.111c-0.227,1.11-0.277,2.091-0.152,2.94
		c0.124,0.851,0.391,1.57,0.799,2.159c0.408,0.59,0.945,1.037,1.615,1.343c0.668,0.307,1.434,0.459,2.295,0.459
		c0.951,0,1.841-0.192,2.669-0.578c0.827-0.385,1.563-0.912,2.21-1.58c0.646-0.669,1.189-1.463,1.632-2.381
		S443.64,98.265,443.866,97.2z"/>
	<path fill="#00A1FF" d="M452.196,97.744c-0.204,0.952-0.271,1.854-0.204,2.703s0.283,1.587,0.646,2.21
		c0.363,0.624,0.879,1.122,1.547,1.496c0.669,0.374,1.49,0.561,2.466,0.561c1.337,0,2.556-0.351,3.655-1.054
		c1.099-0.702,1.943-1.7,2.533-2.992h2.277c-0.431,0.839-0.924,1.615-1.479,2.329c-0.557,0.714-1.196,1.338-1.922,1.87
		c-0.725,0.533-1.541,0.946-2.447,1.241c-0.907,0.294-1.916,0.441-3.026,0.441c-1.405,0-2.567-0.237-3.485-0.714
		c-0.918-0.476-1.621-1.127-2.107-1.955c-0.488-0.827-0.766-1.802-0.833-2.924c-0.068-1.122,0.034-2.329,0.306-3.621
		s0.714-2.504,1.326-3.638c0.611-1.133,1.354-2.125,2.227-2.975c0.873-0.851,1.859-1.519,2.959-2.007
		c1.099-0.486,2.283-0.73,3.553-0.73c2.425,0,4.152,0.833,5.185,2.499c1.031,1.666,1.195,4.086,0.493,7.259H452.196z
		 M464.062,96.044c0.182-0.861,0.232-1.671,0.154-2.431c-0.08-0.759-0.289-1.416-0.63-1.972c-0.34-0.556-0.827-0.997-1.462-1.326
		c-0.635-0.328-1.406-0.493-2.312-0.493s-1.739,0.17-2.498,0.51c-0.76,0.34-1.445,0.794-2.057,1.36
		c-0.613,0.566-1.146,1.224-1.599,1.972c-0.454,0.748-0.815,1.542-1.088,2.38H464.062z"/>
</g>
</svg>
